<svg width="79" height="17" viewBox="0 0 79 17" fill="none" xmlns="http://www.w3.org/2000/svg">
<mask id="mask0_440_13454" style="mask-type:luminance" maskUnits="userSpaceOnUse" x="0" y="0" width="79" height="17">
<path d="M78.0341 0.174316H0.603271V16.1743H78.0341V0.174316Z" fill="white"/>
</mask>
<g mask="url(#mask0_440_13454)">
<mask id="mask1_440_13454" style="mask-type:luminance" maskUnits="userSpaceOnUse" x="-138" y="-92" width="354" height="200">
<path d="M215.869 -91.1362H-137.234V107.485H215.869V-91.1362Z" fill="white"/>
</mask>
<g mask="url(#mask1_440_13454)">
<mask id="mask2_440_13454" style="mask-type:luminance" maskUnits="userSpaceOnUse" x="0" y="0" width="79" height="17">
<path d="M78.1224 0.0825195H0.513184V16.2664H78.1224V0.0825195Z" fill="white"/>
</mask>
<g mask="url(#mask2_440_13454)">
<mask id="mask3_440_13454" style="mask-type:luminance" maskUnits="userSpaceOnUse" x="0" y="0" width="79" height="17">
<path d="M78.0764 0.174316H0.559082V16.1743H78.0764V0.174316Z" fill="white"/>
</mask>
<g mask="url(#mask3_440_13454)">
<path d="M9.57616 9.49865C8.82765 9.33313 8.19132 9.25037 7.58075 9.25037C6.14075 9.25037 4.45247 9.77635 4.45247 11.494C4.45247 12.7685 5.50442 13.4324 6.66856 13.4324C7.8327 13.4324 8.74489 12.9341 9.57616 12.1855V9.49865ZM10.1021 15.8416L9.79684 14.5947C8.85523 15.7589 7.38765 16.1727 5.8373 16.1727C3.12282 16.1727 0.603271 14.5396 0.603271 11.5474C0.603271 7.97406 3.92649 6.83934 6.94626 6.83934C7.74994 6.83934 8.66396 6.94969 9.57799 7.14463V6.9221C9.57799 5.09405 8.82948 3.98692 6.69799 3.98692C5.0373 3.98692 3.56787 4.59565 2.29523 5.2614L1.24327 2.43657C3.0989 1.52255 5.34259 0.941406 7.50167 0.941406C11.5458 0.941406 13.5118 3.29542 13.5118 7.08945V15.8416H10.1058H10.1021Z" fill="#0044FC"/>
<path d="M22.2069 4.54197H16.3623V1.27393H27.3858V3.07439L21.7913 12.5732H27.8566V15.8413H16.6676V14.0132L22.2069 4.54197Z" fill="#0044FC"/>
<path d="M40.1177 15.8413L39.8125 13.8477C38.6483 15.4808 36.9049 16.1742 35.2975 16.1742C33.6902 16.1742 32.3347 15.4257 31.4207 14.2634C30.286 12.7958 30.1187 10.9126 30.1187 8.83439V1.27393H34.0506V8.64128C34.0506 9.72082 34.0782 10.9401 34.4938 11.7714C34.8543 12.4923 35.5734 12.7958 36.4322 12.7958C37.5945 12.7958 38.869 12.1319 39.5899 10.9401V1.27393H43.5219V15.8431H40.1159L40.1177 15.8413Z" fill="#0044FC"/>
<path d="M50.7164 3.21267C51.5477 1.85543 52.6824 0.941406 54.1224 0.941406C54.8433 0.941406 55.4796 1.07934 56.0056 1.27428L55.064 4.70785C54.6483 4.48716 54.1775 4.37497 53.6791 4.37497C52.5444 4.37497 51.5182 5.01129 50.9371 5.98049V15.8398H47.0051V1.2706H50.4111L50.7164 3.20899V3.21267Z" fill="#0044FC"/>
<path d="M66.7807 6.84081C66.6979 5.09552 65.4786 4.01598 63.8731 4.01598C61.9899 4.01598 60.9655 5.2077 60.5499 6.84081H66.7807ZM60.3549 9.5277C60.6326 11.5213 61.9329 13.0183 64.011 13.0183C65.8943 13.0183 66.8635 12.2422 67.8051 10.8574L70.3816 12.6027C68.7191 15.0118 66.8635 16.176 63.7333 16.176C59.3287 16.176 56.366 13.101 56.366 8.72586C56.366 4.35069 59.5789 0.942871 63.7609 0.942871C67.943 0.942871 70.7954 3.79529 70.7954 7.67391C70.7954 8.25506 70.7126 8.94839 70.6023 9.52954H60.3549V9.5277Z" fill="#0044FC"/>
<path d="M74.7955 1.96363V2.828C75.3307 2.828 75.7206 2.80409 75.7206 2.39029C75.7206 2.01328 75.4778 1.96363 74.7955 1.96363ZM75.9026 4.47029L75.0015 3.2657H74.7955V4.47029H74.2107V1.48731H74.8323C75.9523 1.48731 76.3293 1.75581 76.3293 2.37558C76.3293 2.74156 76.1104 3.1057 75.7077 3.23995L76.6088 4.47029H75.9026ZM75.2571 5.12685C76.4507 5.12685 77.4235 4.1411 77.4235 2.94754C77.4235 1.75397 76.4507 0.768229 75.2571 0.768229C74.0636 0.768229 73.0907 1.75397 73.0907 2.94754C73.0907 4.1411 74.0636 5.12685 75.2571 5.12685ZM75.2571 0.172363C76.7909 0.172363 78.0323 1.41374 78.0323 2.94754C78.0323 4.48133 76.7909 5.72271 75.2571 5.72271C73.7233 5.72271 72.4819 4.48133 72.4819 2.94754C72.4819 1.41374 73.7233 0.172363 75.2571 0.172363Z" fill="#0044FC"/>
</g>
</g>
</g>
</g>
</svg>
