<svg width="79" height="17" viewBox="0 0 79 17" fill="none" xmlns="http://www.w3.org/2000/svg">
<mask id="mask0_852_17480" style="mask-type:luminance" maskUnits="userSpaceOnUse" x="0" y="0" width="79" height="17">
<path d="M78.0348 0.174316H0.604004V16.1743H78.0348V0.174316Z" fill="white"/>
</mask>
<g mask="url(#mask0_852_17480)">
<mask id="mask1_852_17480" style="mask-type:luminance" maskUnits="userSpaceOnUse" x="-138" y="-92" width="354" height="200">
<path d="M215.87 -91.1362H-137.233V107.485H215.87V-91.1362Z" fill="white"/>
</mask>
<g mask="url(#mask1_852_17480)">
<mask id="mask2_852_17480" style="mask-type:luminance" maskUnits="userSpaceOnUse" x="0" y="0" width="79" height="17">
<path d="M78.1233 0.0825195H0.514038V16.2664H78.1233V0.0825195Z" fill="white"/>
</mask>
<g mask="url(#mask2_852_17480)">
<mask id="mask3_852_17480" style="mask-type:luminance" maskUnits="userSpaceOnUse" x="0" y="0" width="79" height="17">
<path d="M78.0771 0.174316H0.559814V16.1743H78.0771V0.174316Z" fill="white"/>
</mask>
<g mask="url(#mask3_852_17480)">
<path d="M9.57689 9.49865C8.82838 9.33313 8.19205 9.25037 7.58148 9.25037C6.14148 9.25037 4.4532 9.77635 4.4532 11.494C4.4532 12.7685 5.50515 13.4324 6.66929 13.4324C7.83343 13.4324 8.74562 12.9341 9.57689 12.1855V9.49865ZM10.1029 15.8416L9.79757 14.5947C8.85596 15.7589 7.38838 16.1727 5.83803 16.1727C3.12355 16.1727 0.604004 14.5396 0.604004 11.5474C0.604004 7.97406 3.92722 6.83934 6.94699 6.83934C7.75067 6.83934 8.66469 6.94969 9.57872 7.14463V6.9221C9.57872 5.09405 8.83022 3.98692 6.69872 3.98692C5.03803 3.98692 3.5686 4.59565 2.29596 5.2614L1.244 2.43657C3.09963 1.52255 5.34332 0.941406 7.5024 0.941406C11.5465 0.941406 13.5125 3.29542 13.5125 7.08945V15.8416H10.1065H10.1029Z" fill="white"/>
<path d="M22.2076 4.54197H16.363V1.27393H27.3865V3.07439L21.792 12.5732H27.8573V15.8413H16.6683V14.0132L22.2076 4.54197Z" fill="white"/>
<path d="M40.1185 15.8413L39.8132 13.8477C38.649 15.4808 36.9056 16.1742 35.2982 16.1742C33.6909 16.1742 32.3355 15.4257 31.4215 14.2634C30.2867 12.7958 30.1194 10.9126 30.1194 8.83439V1.27393H34.0513V8.64128C34.0513 9.72082 34.0789 10.9401 34.4946 11.7714C34.855 12.4923 35.5741 12.7958 36.433 12.7958C37.5953 12.7958 38.8697 12.1319 39.5907 10.9401V1.27393H43.5226V15.8431H40.1166L40.1185 15.8413Z" fill="white"/>
<path d="M50.7171 3.21267C51.5484 1.85543 52.6831 0.941406 54.1231 0.941406C54.844 0.941406 55.4803 1.07934 56.0063 1.27428L55.0647 4.70785C54.6491 4.48716 54.1783 4.37497 53.6799 4.37497C52.5452 4.37497 51.519 5.01129 50.9378 5.98049V15.8398H47.0059V1.2706H50.4118L50.7171 3.20899V3.21267Z" fill="white"/>
<path d="M66.7814 6.84081C66.6987 5.09552 65.4794 4.01598 63.8738 4.01598C61.9906 4.01598 60.9662 5.2077 60.5506 6.84081H66.7814ZM60.3557 9.5277C60.6334 11.5213 61.9336 13.0183 64.0118 13.0183C65.895 13.0183 66.8642 12.2422 67.8058 10.8574L70.3824 12.6027C68.7198 15.0118 66.8642 16.176 63.7341 16.176C59.3295 16.176 56.3667 13.101 56.3667 8.72586C56.3667 4.35069 59.5796 0.942871 63.7617 0.942871C67.9437 0.942871 70.7961 3.79529 70.7961 7.67391C70.7961 8.25506 70.7134 8.94839 70.603 9.52954H60.3557V9.5277Z" fill="white"/>
<path d="M74.7961 1.96363V2.828C75.3313 2.828 75.7212 2.80409 75.7212 2.39029C75.7212 2.01328 75.4784 1.96363 74.7961 1.96363ZM75.9033 4.47029L75.0021 3.2657H74.7961V4.47029H74.2113V1.48731H74.8329C75.9529 1.48731 76.3299 1.75581 76.3299 2.37558C76.3299 2.74156 76.1111 3.1057 75.7083 3.23995L76.6095 4.47029H75.9033ZM75.2577 5.12685C76.4513 5.12685 77.4242 4.1411 77.4242 2.94754C77.4242 1.75397 76.4513 0.768229 75.2577 0.768229C74.0642 0.768229 73.0913 1.75397 73.0913 2.94754C73.0913 4.1411 74.0642 5.12685 75.2577 5.12685ZM75.2577 0.172363C76.7915 0.172363 78.0329 1.41374 78.0329 2.94754C78.0329 4.48133 76.7915 5.72271 75.2577 5.72271C73.7239 5.72271 72.4825 4.48133 72.4825 2.94754C72.4825 1.41374 73.7239 0.172363 75.2577 0.172363Z" fill="white"/>
</g>
</g>
</g>
</g>
</svg>
