<svg width="16" height="17" viewBox="0 0 16 17" fill="none" xmlns="http://www.w3.org/2000/svg">
<path d="M12.5885 5.86022C12.4532 5.72492 12.2696 5.64891 12.0782 5.64891C11.8869 5.64891 11.7033 5.72492 11.568 5.86022L7.99545 9.43273L4.42292 5.86022C4.2868 5.72875 4.10449 5.65601 3.91526 5.65765C3.72602 5.6593 3.545 5.7352 3.41119 5.86901C3.27738 6.00282 3.20148 6.18384 3.19983 6.37307C3.19819 6.56231 3.27093 6.74461 3.4024 6.88073L7.48519 10.9635C7.62053 11.0988 7.80407 11.1748 7.99545 11.1748C8.18682 11.1748 8.37036 11.0988 8.50571 10.9635L12.5885 6.88073C12.7238 6.74539 12.7998 6.56185 12.7998 6.37048C12.7998 6.1791 12.7238 5.99556 12.5885 5.86022Z" fill="#0A2043"/>
</svg>
