<svg width="16" height="17" viewBox="0 0 16 17" fill="none" xmlns="http://www.w3.org/2000/svg">
<path d="M12.5885 5.96911C12.4532 5.83381 12.2696 5.7578 12.0782 5.7578C11.8869 5.7578 11.7033 5.83381 11.568 5.96911L7.99545 9.54162L4.42292 5.96911C4.2868 5.83764 4.10449 5.7649 3.91526 5.76654C3.72602 5.76818 3.545 5.84409 3.41119 5.9779C3.27738 6.11171 3.20148 6.29273 3.19983 6.48196C3.19819 6.67119 3.27093 6.8535 3.4024 6.98962L7.48519 11.0724C7.62053 11.2077 7.80407 11.2837 7.99545 11.2837C8.18682 11.2837 8.37036 11.2077 8.50571 11.0724L12.5885 6.98962C12.7238 6.85428 12.7998 6.67074 12.7998 6.47936C12.7998 6.28799 12.7238 6.10445 12.5885 5.96911Z" fill="white"/>
</svg>
