<svg width="16" height="20" viewBox="0 0 16 20" fill="none" xmlns="http://www.w3.org/2000/svg">
<path d="M7.99992 0.674316C6.02099 0.676651 4.12378 1.46381 2.72446 2.86313C1.32515 4.26245 0.537987 6.15967 0.535652 8.1386C0.533282 9.75579 1.06153 11.3291 2.03936 12.6172C2.03936 12.6172 2.24293 12.8852 2.27618 12.9239L7.99992 19.6743L13.7264 12.9205C13.7562 12.8845 13.9605 12.6172 13.9605 12.6172L13.9611 12.6151C14.9385 11.3276 15.4665 9.75505 15.4642 8.1386C15.4618 6.15967 14.6747 4.26245 13.2754 2.86313C11.8761 1.46381 9.97884 0.676651 7.99992 0.674316ZM7.99992 10.8529C7.46308 10.8529 6.9383 10.6937 6.49194 10.3954C6.04558 10.0972 5.69769 9.67329 5.49225 9.17731C5.28681 8.68134 5.23306 8.13559 5.33779 7.60907C5.44252 7.08255 5.70103 6.59891 6.08063 6.21931C6.46023 5.83971 6.94387 5.5812 7.47039 5.47647C7.9969 5.37174 8.54265 5.42549 9.03862 5.63093C9.53459 5.83637 9.95851 6.18426 10.2568 6.63063C10.555 7.07699 10.7142 7.60177 10.7142 8.1386C10.7133 8.8582 10.427 9.54807 9.91821 10.0569C9.40938 10.5657 8.71951 10.852 7.99992 10.8529Z" fill="white"/>
</svg>
